<?xml version="1.0" encoding="UTF-8" standalone="no"?>
<!-- Created with Inkscape (http://www.inkscape.org/) -->

<svg
   width="1024"
   height="1024"
   viewBox="0 0 270.93333 270.93333"
   version="1.1"
   id="svg5"
   inkscape:version="1.2.2 (b0a8486541, 2022-12-01)"
   sodipodi:docname="InkscapeProject.svg"
   inkscape:export-filename="D.png"
   inkscape:export-xdpi="96"
   inkscape:export-ydpi="96"
   xmlns:inkscape="http://www.inkscape.org/namespaces/inkscape"
   xmlns:sodipodi="http://sodipodi.sourceforge.net/DTD/sodipodi-0.dtd"
   xmlns="http://www.w3.org/2000/svg"
   xmlns:svg="http://www.w3.org/2000/svg">
  <sodipodi:namedview
     id="namedview7"
     pagecolor="#ffffff"
     bordercolor="#111111"
     borderopacity="1"
     inkscape:showpageshadow="0"
     inkscape:pageopacity="0"
     inkscape:pagecheckerboard="1"
     inkscape:deskcolor="#d1d1d1"
     inkscape:document-units="mm"
     showgrid="true"
     inkscape:zoom="0.74653478"
     inkscape:cx="559.25057"
     inkscape:cy="517.05562"
     inkscape:window-width="1920"
     inkscape:window-height="1008"
     inkscape:window-x="0"
     inkscape:window-y="0"
     inkscape:window-maximized="1"
     inkscape:current-layer="layer5"
     showguides="false">
    <inkscape:grid
       type="xygrid"
       id="grid18"
       spacingx="4.2333333"
       spacingy="4.2333333"
       color="#3800e5"
       opacity="0.14901961"
       empcolor="#000ee5"
       empopacity="0.30196078"
       empspacing="4" />
  </sodipodi:namedview>
  <defs
     id="defs2" />
  <g
     inkscape:groupmode="layer"
     id="layer5"
     inkscape:label="Numerals"
     style="display:inline">
    <path
       id="000"
       style="display:inline;stroke:#000000;stroke-width:1.32291667;stroke-linecap:round;stroke-linejoin:round;stroke-dasharray:none"
       inkscape:label="000"
       d="m 139.69999,237.06667 a 3.9472938,3.9472973 0 0 1 -3.94729,3.94729 3.9472938,3.9472973 0 0 1 -3.94729,-3.94729 3.9472938,3.9472973 0 0 1 3.94729,-3.9473 3.9472938,3.9472973 0 0 1 3.94729,3.9473 z M 139.41395,135.7527 a 3.9472938,3.9472973 0 0 1 -3.94729,3.9473 3.9472938,3.9472973 0 0 1 -3.94729,-3.9473 3.9472938,3.9472973 0 0 1 3.94729,-3.9473 3.9472938,3.9472973 0 0 1 3.94729,3.9473 z M 139.12793,33.866665 a 3.9472938,3.9472973 0 0 1 -3.9473,3.947297 3.9472938,3.9472973 0 0 1 -3.94729,-3.947297 3.9472938,3.9472973 0 0 1 3.94729,-3.947297 3.9472938,3.9472973 0 0 1 3.9473,3.947297 z"
       sodipodi:insensitive="true" />
  </g>
</svg>
