<?xml version="1.0" encoding="UTF-8" standalone="no"?>
<!-- Created with Inkscape (http://www.inkscape.org/) -->

<svg
   width="1024"
   height="1024"
   viewBox="0 0 270.93333 270.93333"
   version="1.1"
   id="svg5"
   inkscape:version="1.2.2 (b0a8486541, 2022-12-01)"
   sodipodi:docname="InkscapeProject.svg"
   inkscape:export-filename="D.png"
   inkscape:export-xdpi="96"
   inkscape:export-ydpi="96"
   xmlns:inkscape="http://www.inkscape.org/namespaces/inkscape"
   xmlns:sodipodi="http://sodipodi.sourceforge.net/DTD/sodipodi-0.dtd"
   xmlns="http://www.w3.org/2000/svg"
   xmlns:svg="http://www.w3.org/2000/svg">
  <sodipodi:namedview
     id="namedview7"
     pagecolor="#ffffff"
     bordercolor="#111111"
     borderopacity="1"
     inkscape:showpageshadow="0"
     inkscape:pageopacity="0"
     inkscape:pagecheckerboard="1"
     inkscape:deskcolor="#d1d1d1"
     inkscape:document-units="mm"
     showgrid="true"
     inkscape:zoom="0.74653478"
     inkscape:cx="561.92961"
     inkscape:cy="517.05562"
     inkscape:window-width="1600"
     inkscape:window-height="868"
     inkscape:window-x="1920"
     inkscape:window-y="0"
     inkscape:window-maximized="1"
     inkscape:current-layer="layer2"
     showguides="false">
    <inkscape:grid
       type="xygrid"
       id="grid18"
       spacingx="4.2333333"
       spacingy="4.2333333"
       color="#3800e5"
       opacity="0.14901961"
       empcolor="#000ee5"
       empopacity="0.30196078"
       empspacing="4" />
  </sodipodi:namedview>
  <defs
     id="defs2" />
  <g
     inkscape:label="Guides &amp; Origin"
     inkscape:groupmode="layer"
     id="layer1"
     style="display:none"
     sodipodi:insensitive="true">
    <circle
       style="display:inline;fill:#000280;fill-opacity:1;stroke:#000000;stroke-width:2.065;stroke-dasharray:2.065, 2.065;stroke-dashoffset:0;stroke-opacity:1"
       id="origin"
       cx="135.46666"
       cy="135.46666"
       inkscape:label="Origin"
       sodipodi:insensitive="true"
       r="1" />
    <rect
       style="fill:none;stroke:#2a6eff;stroke-width:1.32292;stroke-linecap:round;stroke-linejoin:round;stroke-opacity:1"
       id="rect1093"
       width="203.2"
       height="203.2"
       x="33.866665"
       y="33.866665"
       inkscape:label="LetterSpace"
       sodipodi:insensitive="true" />
  </g>
  <g
     inkscape:groupmode="layer"
     id="layer2"
     inkscape:label="Consonant Fragments"
     style="display:inline">
    <path
       style="display:inline;fill:none;stroke:#000104;stroke-width:1.32292;stroke-linecap:round;stroke-linejoin:round;stroke-opacity:1"
       d="m 33.866666,33.866666 h 50.8 33.866664 V 135.46666 h 16.93333 v 0"
       id="P"
       inkscape:label="P"
       sodipodi:insensitive="true" />
    <path
       style="display:none;fill:none;stroke:#000104;stroke-width:1.32292;stroke-linecap:round;stroke-linejoin:round;stroke-opacity:1"
       d="M 33.866666,33.866666 H 67.733332 V 135.46666 h 67.733328"
       id="T"
       inkscape:label="T"
       sodipodi:insensitive="true" />
    <path
       style="display:none;fill:none;stroke:#000104;stroke-width:1.32292;stroke-linecap:round;stroke-linejoin:round;stroke-opacity:1"
       d="m 33.866666,33.866666 h 33.866666 v 50.8 H 101.6 v 50.799994 h 33.86666"
       id="K"
       inkscape:label="K"
       sodipodi:insensitive="true" />
    <path
       style="display:none;fill:none;stroke:#000104;stroke-width:1.32292;stroke-linecap:round;stroke-linejoin:round;stroke-opacity:1"
       d="m 33.866666,237.06666 101.599994,-101.6"
       id="F"
       inkscape:label="F"
       sodipodi:insensitive="true" />
    <path
       style="display:none;fill:none;stroke:#000104;stroke-width:1.32292;stroke-linecap:round;stroke-linejoin:round;stroke-opacity:1"
       d="M 33.866666,33.866666 135.46666,135.46666 v 0 0 0"
       id="S"
       inkscape:label="S"
       sodipodi:insensitive="true" />
    <path
       style="display:none;fill:none;stroke:#000104;stroke-width:1.32292;stroke-linecap:round;stroke-linejoin:round;stroke-opacity:1"
       d="M 33.866666,33.866666 67.733332,67.733332 V 101.6 H 101.6 l 33.86666,33.86666"
       id="SH"
       inkscape:label="SH"
       sodipodi:insensitive="true" />
    <path
       style="display:none;fill:none;stroke:#000104;stroke-width:1.32292;stroke-linecap:round;stroke-linejoin:round;stroke-opacity:1"
       d="m 33.866666,135.46666 c 0,0 17.922814,-36.771971 50.8,-33.86666 14.645361,1.29419 26.012284,9.07895 50.799994,33.86666 l 1e-5,1e-5"
       id="M"
       sodipodi:nodetypes="cssc"
       inkscape:label="M"
       sodipodi:insensitive="true" />
    <path
       style="display:none;fill:none;stroke:#000104;stroke-width:1.32292;stroke-linecap:round;stroke-linejoin:round;stroke-opacity:1"
       d="m 33.866666,237.06666 c 0,0 16.933334,-186.266643 101.599994,-101.6 l 1e-5,1e-5"
       id="N"
       sodipodi:nodetypes="csc"
       inkscape:label="N"
       sodipodi:insensitive="true" />
    <path
       style="display:none;fill:none;stroke:#000104;stroke-width:1.32292;stroke-linecap:round;stroke-linejoin:round;stroke-opacity:1"
       d="m 33.866666,135.46666 c 101.599994,0 101.599994,0 101.599994,0"
       id="L"
       inkscape:label="L"
       sodipodi:insensitive="true" />
    <path
       style="display:none;fill:none;stroke:#000104;stroke-width:1.32292;stroke-linecap:round;stroke-linejoin:round;stroke-opacity:1"
       d="m 33.866666,135.46666 50.8,33.86667 50.799994,-33.86667"
       id="W"
       inkscape:label="W"
       sodipodi:insensitive="true" />
    <path
       style="display:none;fill:none;stroke:#000104;stroke-width:1.32292;stroke-linecap:round;stroke-linejoin:round;stroke-opacity:1"
       d="m 33.866666,135.46666 50.8,-33.86666 50.799994,33.86666"
       id="Y"
       inkscape:label="Y"
       sodipodi:insensitive="true" />
    <path
       style="display:none;fill:none;stroke:#000104;stroke-width:1.32292;stroke-linecap:round;stroke-linejoin:round;stroke-opacity:1"
       d="m 33.866666,135.46666 50.8,101.6 50.799994,-101.6"
       id="CH"
       inkscape:label="CH"
       sodipodi:insensitive="true" />
    <path
       style="display:none;fill:none;stroke:#000104;stroke-width:1.32292;stroke-linecap:round;stroke-linejoin:round;stroke-opacity:1"
       d="m 33.866666,135.46666 50.8,-101.599994 50.799994,101.599994"
       id="G"
       inkscape:label="G"
       sodipodi:insensitive="true" />
    <path
       style="display:none;fill:none;stroke:#000104;stroke-width:1.32292;stroke-linecap:round;stroke-linejoin:round;stroke-opacity:1"
       d="M 33.866666,135.46666 67.733332,84.666666 101.6,186.26667 135.46666,135.46666"
       id="H"
       sodipodi:nodetypes="cccc"
       inkscape:label="H"
       sodipodi:insensitive="true" />
    <path
       style="display:none;fill:none;stroke:#000104;stroke-width:1.32292;stroke-linecap:round;stroke-linejoin:round;stroke-opacity:1"
       d="M 33.866666,33.866666 H 135.46666 L 33.866666,135.46666 H 135.46666"
       id="Z"
       inkscape:label="Z"
       sodipodi:insensitive="true" />
    <path
       style="display:none;fill:none;stroke:#000104;stroke-width:1.32292;stroke-linecap:round;stroke-linejoin:round;stroke-opacity:1"
       d="M 33.866666,33.866666 50.799999,237.06666 h 67.733331 l 16.93333,-101.6"
       id="B"
       inkscape:label="B"
       sodipodi:insensitive="true" />
    <path
       style="display:none;fill:none;stroke:#000104;stroke-width:1.32292;stroke-linecap:round;stroke-linejoin:round;stroke-opacity:1"
       d="M 33.866666,237.06666 50.799999,33.866666 h 67.733331 l 16.93333,101.599994"
       id="D"
       inkscape:label="D"
       sodipodi:insensitive="true" />
    <path
       style="display:none;fill:none;stroke:#000000;stroke-width:1.32292;stroke-linecap:round;stroke-linejoin:round"
       d="m 33.866666,237.06666 33.866666,-101.6 h 67.733328"
       id="V"
       inkscape:label="V"
       sodipodi:insensitive="true" />
    <path
       style="display:none;fill:none;stroke:#000000;stroke-width:1.32292;stroke-linecap:round;stroke-linejoin:round"
       d="m 33.866666,237.06666 h 84.666664 l -67.733331,-50.8 h 67.733331 v -50.8 h 16.93333"
       id="R"
       inkscape:label="R"
       sodipodi:insensitive="true" />
    <path
       style="display:none;fill:none;stroke:#000000;stroke-width:1.32292;stroke-linecap:round;stroke-linejoin:round"
       d="M 33.866666,237.06666 67.733332,203.19999 84.666666,152.4 135.46666,135.46666"
       id="TH"
       sodipodi:insensitive="true" />
    <path
       style="display:none;fill:none;stroke:#000000;stroke-width:1.32292;stroke-linecap:round;stroke-linejoin:round"
       d="m 33.866666,135.46666 h 50.8 V 84.666666 H 101.6 l 33.86666,50.799994"
       id="J"
       inkscape:label="J"
       sodipodi:insensitive="true" />
  </g>
  <g
     inkscape:groupmode="layer"
     id="layer3"
     inkscape:label="Vowel Fragments"
     style="display:inline">
    <path
       style="display:none;fill:none;stroke:#000104;stroke-width:1.32292;stroke-linecap:round;stroke-linejoin:round;stroke-opacity:1"
       d="m 135.46666,135.46666 h 101.6"
       id="A"
       inkscape:label="A"
       sodipodi:insensitive="true" />
    <path
       style="display:none;fill:none;stroke:#000104;stroke-width:1.32292;stroke-linecap:round;stroke-linejoin:round;stroke-opacity:1"
       d="m 135.46666,135.46666 101.6,-101.599994"
       id="E"
       inkscape:label="E"
       sodipodi:insensitive="true" />
    <path
       style="display:none;fill:none;stroke:#000104;stroke-width:1.32292;stroke-linecap:round;stroke-linejoin:round;stroke-opacity:1"
       d="m 135.46666,135.46666 h 50.8 V 33.866666 h 50.8"
       id="I"
       inkscape:label="I"
       sodipodi:insensitive="true" />
    <path
       style="display:inline;fill:none;stroke:#000104;stroke-width:1.32292;stroke-linecap:round;stroke-linejoin:round;stroke-opacity:1"
       d="m 135.46666,135.46666 101.6,101.6"
       id="O"
       inkscape:label="O"
       sodipodi:insensitive="true" />
    <path
       style="display:none;fill:none;stroke:#000104;stroke-width:1.32292;stroke-linecap:round;stroke-linejoin:round;stroke-opacity:1"
       d="m 135.46666,135.46666 c 0,0 20.89422,-16.7069 50.80001,-16.93333 15.24784,-0.11545 39.36362,3.5909 50.79999,16.93333 v 1e-5"
       id="AH"
       sodipodi:nodetypes="cssc"
       inkscape:label="AHW"
       sodipodi:insensitive="true" />
    <path
       style="display:none;fill:none;stroke:#000104;stroke-width:1.32292;stroke-linecap:round;stroke-linejoin:round;stroke-opacity:1"
       d="m 135.46666,135.46666 h 50.8 v 101.6 h 50.8"
       id="U"
       inkscape:label="U"
       sodipodi:insensitive="true" />
    <path
       style="display:none;fill:none;stroke:#000104;stroke-width:1.32292;stroke-linecap:round;stroke-linejoin:round;stroke-opacity:1"
       d="m 135.46666,135.46666 50.8,-50.799994 50.8,50.799994"
       id="ON"
       inkscape:label="ON"
       sodipodi:insensitive="true" />
    <path
       style="display:none;fill:none;stroke:#000104;stroke-width:1.32292;stroke-linecap:round;stroke-linejoin:round;stroke-opacity:1"
       d="m 237.06666,237.06666 -25.4,-33.86667 -25.4,33.86667 v -101.6 h -50.8"
       id="OOO"
       inkscape:label="OOO"
       sodipodi:nodetypes="ccccc"
       sodipodi:insensitive="true" />
    <path
       style="display:none;fill:none;stroke:#000104;stroke-width:1.32292;stroke-linecap:round;stroke-linejoin:round;stroke-opacity:1"
       d="m 135.46666,135.46666 h 33.86667 V 84.666666 h 33.86666 v -50.8 h 33.86667"
       id="AI"
       inkscape:label="AI"
       sodipodi:insensitive="true" />
    <path
       style="display:none;fill:none;stroke:#000104;stroke-width:1.32292;stroke-linecap:round;stroke-linejoin:round;stroke-opacity:1"
       d="m 135.46666,135.46666 50.8,-101.599994 50.8,203.199994 v 0"
       id="OI"
       inkscape:label="OI"
       sodipodi:insensitive="true" />
    <path
       style="display:none;fill:none;stroke:#000104;stroke-width:1.32292;stroke-linecap:round;stroke-linejoin:round;stroke-opacity:1"
       d="m 237.06666,33.866666 -50.8,203.199994 -50.8,-101.6"
       id="AU"
       inkscape:label="AU"
       sodipodi:nodetypes="ccc"
       sodipodi:insensitive="true" />
    <path
       style="display:none;fill:none;stroke:#000104;stroke-width:1.32292;stroke-linecap:round;stroke-linejoin:round;stroke-opacity:1"
       d="m 135.46666,135.46666 c 0,0 38.10001,-80.433327 50.80001,-101.599995 l 50.79999,101.600005"
       id="OU"
       sodipodi:nodetypes="ccc"
       inkscape:label="OU"
       sodipodi:insensitive="true" />
    <path
       style="display:none;fill:none;stroke:#000104;stroke-width:1.32292;stroke-linecap:round;stroke-linejoin:round;stroke-opacity:1"
       d="m 135.46666,135.46666 h 33.86667 v 50.8 h 33.86666 v 50.8 h 33.86667"
       id="EI"
       inkscape:label="EI"
       sodipodi:insensitive="true" />
  </g>
  <g
     inkscape:groupmode="layer"
     id="layer4"
     inkscape:label="Special"
     style="display:none">
    <path
       style="display:none;fill:none;fill-opacity:1;stroke:#000000;stroke-width:1.32292;stroke-linecap:round;stroke-linejoin:round;stroke-dasharray:none;stroke-dashoffset:0;stroke-opacity:1"
       d="M 50.799999,135.46666 H 220.13333"
       id="path4555"
       inkscape:label="StronglyBindedExtender-U"
       sodipodi:insensitive="true" />
    <path
       style="display:none;fill:none;fill-opacity:1;stroke:#000000;stroke-width:1.32292;stroke-linecap:round;stroke-linejoin:round;stroke-dasharray:none;stroke-dashoffset:0;stroke-opacity:1"
       d="M 16.933333,135.46667 H 254"
       id="path4920"
       inkscape:label="LooselyBindedExtender-UN"
       sodipodi:nodetypes="cc"
       sodipodi:insensitive="true" />
    <path
       style="display:inline;fill:none;fill-opacity:1;stroke:#000000;stroke-width:1.32292;stroke-linecap:round;stroke-linejoin:round;stroke-dasharray:none;stroke-dashoffset:0;stroke-opacity:1"
       d="M 33.866666,84.666666 H 135.46666 v 50.799994"
       id="C_NEGATION"
       inkscape:label="C_NEGATION"
       sodipodi:insensitive="true" />
    <path
       style="display:inline;fill:none;fill-opacity:1;stroke:#000000;stroke-width:1.32292;stroke-linecap:round;stroke-linejoin:round;stroke-dasharray:none;stroke-dashoffset:0;stroke-opacity:1"
       d="m 135.46666,135.46666 h 101.6 v 50.8"
       id="V_NEGATION"
       inkscape:label="V_NEGATION"
       sodipodi:insensitive="true" />
    <ellipse
       style="display:none;fill:none;fill-opacity:1;stroke:#000000;stroke-width:1.32292;stroke-linecap:round;stroke-linejoin:round;stroke-dasharray:none;stroke-dashoffset:0;stroke-opacity:1"
       id="path5905"
       cx="135.46666"
       cy="135.46666"
       rx="50.799995"
       ry="59.266666"
       inkscape:label="Half-Stop"
       sodipodi:insensitive="true" />
    <ellipse
       style="display:none;fill:#000000;fill-opacity:1;stroke:#000000;stroke-width:1.32292;stroke-linecap:round;stroke-linejoin:round;stroke-dasharray:none;stroke-dashoffset:0;stroke-opacity:1"
       id="ellipse5968"
       cx="135.46666"
       cy="135.46666"
       rx="50.799995"
       ry="59.266666"
       inkscape:label="Full-Stop"
       sodipodi:insensitive="true" />
    <g
       id="g6157"
       inkscape:label="Question-Mark"
       style="display:none"
       sodipodi:insensitive="true">
      <ellipse
         style="display:inline;fill:#000000;fill-opacity:1;stroke:#000000;stroke-width:1.32292;stroke-linecap:round;stroke-linejoin:round;stroke-dasharray:none;stroke-dashoffset:0;stroke-opacity:1"
         id="ellipse6032"
         cx="135.46666"
         cy="135.46666"
         rx="50.799995"
         ry="59.266666"
         inkscape:label="Interrogative" />
      <path
         style="fill:#000000;fill-opacity:1;stroke:#000000;stroke-width:1.32292;stroke-linecap:round;stroke-linejoin:round;stroke-dasharray:none;stroke-dashoffset:0;stroke-opacity:1"
         d="m 186.26667,135.46667 50.79999,84.66666"
         id="path6089"
         inkscape:label="Interrogative"
         sodipodi:nodetypes="cc" />
    </g>
    <g
       id="g6163"
       inkscape:label="Exclamation-Mark"
       style="display:none"
       sodipodi:insensitive="true">
      <ellipse
         style="display:inline;fill:#000000;fill-opacity:1;stroke:#000000;stroke-width:1.32292;stroke-linecap:round;stroke-linejoin:round;stroke-dasharray:none;stroke-dashoffset:0;stroke-opacity:1"
         id="ellipse6159"
         cx="135.46666"
         cy="135.46666"
         rx="50.799995"
         ry="59.266666"
         inkscape:label="Full-Stop" />
      <path
         style="fill:#000000;fill-opacity:1;stroke:#000000;stroke-width:1.32292;stroke-linecap:round;stroke-linejoin:round;stroke-dasharray:none;stroke-dashoffset:0;stroke-opacity:1"
         d="M 184.15,135.46667 237.06666,50.8"
         id="path6161"
         inkscape:label="Exclamation"
         sodipodi:nodetypes="cc" />
    </g>
    <g
       id="g6305"
       inkscape:label="Interro-Bang"
       style="display:none"
       sodipodi:insensitive="true">
      <ellipse
         style="display:inline;fill:#000000;fill-opacity:1;stroke:#000000;stroke-width:1.32292;stroke-linecap:round;stroke-linejoin:round;stroke-dasharray:none;stroke-dashoffset:0;stroke-opacity:1"
         id="ellipse6301"
         cx="135.46666"
         cy="135.46666"
         rx="50.799995"
         ry="59.266666"
         inkscape:label="Full-Stop" />
      <path
         style="fill:#000000;fill-opacity:1;stroke:#000000;stroke-width:1.32292;stroke-linecap:round;stroke-linejoin:round;stroke-dasharray:none;stroke-dashoffset:0;stroke-opacity:1"
         d="M 184.15,135.46667 237.06666,50.8"
         id="path6303"
         inkscape:label="Exclamation"
         sodipodi:nodetypes="cc" />
      <path
         style="display:inline;fill:#000000;fill-opacity:1;stroke:#000000;stroke-width:1.32292;stroke-linecap:round;stroke-linejoin:round;stroke-dasharray:none;stroke-dashoffset:0;stroke-opacity:1"
         d="m 186.26667,135.46667 50.79999,84.66666"
         id="path6089-5"
         inkscape:label="Interrogative"
         sodipodi:nodetypes="cc" />
    </g>
    <path
       sodipodi:type="spiral"
       style="display:none;fill:none;fill-rule:evenodd;stroke:#000000;stroke-width:1.32292;stroke-dasharray:none"
       id="path6341"
       sodipodi:cx="135.46666"
       sodipodi:cy="135.46666"
       sodipodi:expansion="1"
       sodipodi:revolution="2.9909141"
       sodipodi:radius="59.23769"
       sodipodi:argument="-20.349045"
       sodipodi:t0="0"
       d="m 135.46666,135.46666 c 0.21225,-2.97154 4.11029,-1.17994 4.93889,0.35278 2.24545,4.15356 -1.73091,8.58029 -5.64445,9.52499 -7.00039,1.68985 -13.19228,-4.3104 -14.1111,-10.9361 -1.34842,-9.72349 6.90599,-17.88865 16.22777,-18.69722 12.42447,-1.0777 22.61782,9.50481 23.28333,21.51944 0.83747,15.11918 -12.10457,27.36332 -26.81111,27.86943 -17.81158,0.61297 -32.11817,-14.70473 -32.45554,-32.10276 -0.39758,-20.50298 17.30513,-36.878877 37.39443,-37.041658 23.19389,-0.187937 41.64347,19.905678 41.62776,42.686098 -0.0178,25.88455 -22.50635,46.4108 -47.97776,46.21387 -28.57507,-0.22092 -51.180121,-25.10711 -50.799979,-53.26942 0.404344,-29.9554 25.583229,-54.198353 55.170039,-55.351152"
       inkscape:label="Colon"
       sodipodi:insensitive="true" />
    <path
       sodipodi:type="spiral"
       style="display:none;fill:none;fill-rule:evenodd;stroke:#000000;stroke-width:1.32292;stroke-dasharray:none"
       id="path6343"
       sodipodi:cx="135.46666"
       sodipodi:cy="135.46666"
       sodipodi:expansion="1"
       sodipodi:revolution="2.989356"
       sodipodi:radius="59.206829"
       sodipodi:argument="-20.349045"
       sodipodi:t0="0"
       d="m 135.46666,135.46666 c 0.21225,-2.97154 4.11029,-1.17994 4.93889,0.35278 2.24545,4.15356 -1.73091,8.58029 -5.64445,9.52499 -7.00039,1.68985 -13.19228,-4.3104 -14.1111,-10.9361 -1.34842,-9.72349 6.90599,-17.88864 16.22777,-18.69722 12.42447,-1.0777 22.61781,9.50481 23.28332,21.51944 0.83748,15.11918 -12.10456,27.36332 -26.8111,27.86943 -17.81158,0.61297 -32.11817,-14.70473 -32.45554,-32.10276 -0.39758,-20.50298 17.30513,-36.878876 37.39443,-37.041656 23.19389,-0.187937 41.64347,19.905676 41.62776,42.686096 -0.0179,25.88455 -22.50635,46.4108 -47.97776,46.21387 C 103.36381,184.6346 80.758761,159.74842 81.138902,131.58611 81.540243,101.85329 106.36748,77.693235 135.72891,76.260411"
       inkscape:label="Semi-Colon"
       transform="rotate(180,135.46666,135.46666)"
       sodipodi:insensitive="true" />
  </g>
  <g
     inkscape:groupmode="layer"
     id="layer5"
     inkscape:label="Numerals"
     style="display:none">
    <ellipse
       style="display:inline;fill:#000000;stroke:#000000;stroke-width:1.32292;stroke-linecap:round;stroke-linejoin:round;stroke-dasharray:none"
       id="0"
       cx="135.18063"
       cy="33.866665"
       rx="3.9472938"
       ry="3.9472973"
       inkscape:label="0"
       sodipodi:insensitive="true" />
    <path
       style="display:inline;fill:#000000;stroke:#000000;stroke-width:1.32292;stroke-linecap:round;stroke-linejoin:round"
       d="m 135.46666,33.866666 -84.666661,50.8"
       id="1"
       inkscape:label="1"
       sodipodi:insensitive="true" />
    <path
       style="display:inline;fill:none;stroke:#000000;stroke-width:1.32292;stroke-linecap:round;stroke-linejoin:round"
       d="m 135.46666,33.866666 -84.666661,50.8 h 84.666671 v 0 0 0"
       id="2"
       inkscape:label="2"
       sodipodi:insensitive="true" />
    <path
       id="3"
       style="display:inline;fill:none;stroke:#000000;stroke-width:1.32292;stroke-linecap:round;stroke-linejoin:round"
       d="M 135.46666,84.666666 50.799999,135.46666 m 84.666661,-101.599994 -84.666661,50.8 h 84.666671 v 0 0 0"
       inkscape:label="3"
       sodipodi:insensitive="true" />
    <path
       id="4"
       style="display:inline;fill:none;stroke:#000000;stroke-width:1.32292;stroke-linecap:round;stroke-linejoin:round"
       d="m 135.46666,33.866666 -84.666661,50.8 h 84.666671 v 0 0 0 m -1e-5,0 -84.666661,50.799994 84.666671,1e-5"
       inkscape:label="4"
       sodipodi:insensitive="true" />
    <path
       id="5"
       style="display:inline;fill:none;stroke:#000000;stroke-width:1.32292;stroke-linecap:round;stroke-linejoin:round"
       d="m 135.46666,33.866666 -84.666661,50.8 h 84.666671 v 0 0 0 m -1e-5,0 -84.666661,50.799994 84.666671,1e-5 -84.66667,50.8"
       inkscape:label="5"
       sodipodi:insensitive="true" />
    <path
       id="6"
       style="display:inline;fill:none;stroke:#000000;stroke-width:1.32292;stroke-linecap:round;stroke-linejoin:round"
       d="M 33.866666,33.866666 16.933333,50.799999 c 15.991075,2e-6 11.825357,0 16.933333,0 -4.642292,4.642293 -7.503861,7.503863 -16.933333,16.933333 H 33.866666 L 16.933333,84.666666 m 118.533327,-50.8 -84.666661,50.8"
       inkscape:label="6"
       sodipodi:nodetypes="cccccccc"
       sodipodi:insensitive="true" />
    <path
       id="7"
       style="display:inline;fill:none;stroke:#000000;stroke-width:1.32292;stroke-linecap:round;stroke-linejoin:round"
       d="M 33.866666,33.866666 16.933333,50.799999 H 33.866666 L 16.933333,67.733332 H 33.866666 L 16.933333,84.666666 m 118.533327,-50.8 -84.666661,50.8 h 84.666671 v 0 0 0"
       inkscape:label="7"
       sodipodi:insensitive="true" />
    <path
       id="8"
       style="display:inline;fill:none;stroke:#000000;stroke-width:1.32292;stroke-linecap:round;stroke-linejoin:round"
       d="M 33.866666,33.866666 16.933333,50.799999 H 33.866666 L 16.933333,67.733332 H 33.866666 L 16.933333,84.666666 m 118.533327,0 -84.666661,50.799994 m 84.666661,-101.599994 -84.666661,50.8 h 84.666671 v 0 0 0"
       inkscape:label="8"
       sodipodi:insensitive="true" />
    <path
       id="9"
       style="display:inline;fill:none;stroke:#000000;stroke-width:1.32292;stroke-linecap:round;stroke-linejoin:round"
       d="M 33.866666,33.866666 16.933333,50.799999 H 33.866666 L 16.933333,67.733332 H 33.866666 L 16.933333,84.666666 m 118.533327,-50.8 -84.666661,50.8 h 84.666671 v 0 0 0 m -1e-5,0 -84.666661,50.799994 84.666671,1e-5"
       inkscape:label="9"
       sodipodi:insensitive="true" />
    <path
       id="HEX_A"
       style="display:inline;fill:none;stroke:#000000;stroke-width:1.32292;stroke-linecap:round;stroke-linejoin:round"
       d="M 33.866666,33.866666 16.933333,50.799999 H 33.866666 L 16.933333,67.733332 H 33.866666 L 16.933333,84.666666 m 118.533327,-50.8 -84.666661,50.8 h 84.666671 v 0 0 0 m -1e-5,0 -84.666661,50.799994 84.666671,1e-5 -84.66667,50.8"
       inkscape:label="HEX_A"
       sodipodi:insensitive="true" />
    <path
       id="HEX_B"
       style="display:inline;fill:none;stroke:#000000;stroke-width:1.32292;stroke-linecap:round;stroke-linejoin:round"
       d="M 169.33333,33.866666 152.4,50.799999 h 16.93333 L 152.4,67.733332 h 16.93333 L 152.4,84.666666 m -118.533334,-50.8 -16.933333,16.933333 H 33.866666 L 16.933333,67.733332 H 33.866666 L 16.933333,84.666666 m 118.533327,-50.8 -84.666661,50.8"
       inkscape:label="HEX_B"
       sodipodi:insensitive="true" />
    <path
       id="HEX_C"
       style="display:inline;fill:none;stroke:#000000;stroke-width:1.32292;stroke-linecap:round;stroke-linejoin:round"
       d="M 169.33333,33.866666 152.4,50.799999 h 16.93333 L 152.4,67.733332 h 16.93333 L 152.4,84.666666 m -118.533334,-50.8 -16.933333,16.933333 H 33.866666 L 16.933333,67.733332 H 33.866666 L 16.933333,84.666666 m 118.533327,-50.8 -84.666661,50.8 h 84.666671 v 0 0 0"
       inkscape:label="HEX_C"
       sodipodi:insensitive="true" />
    <path
       id="HEX_D"
       style="display:inline;fill:none;stroke:#000000;stroke-width:1.32292;stroke-linecap:round;stroke-linejoin:round"
       d="M 169.33333,33.866666 152.4,50.799999 h 16.93333 L 152.4,67.733332 h 16.93333 L 152.4,84.666666 m -118.533334,-50.8 -16.933333,16.933333 H 33.866666 L 16.933333,67.733332 H 33.866666 L 16.933333,84.666666 m 118.533327,0 -84.666661,50.799994 m 84.666661,-101.599994 -84.666661,50.8 h 84.666671 v 0 0 0"
       inkscape:label="HEX_D"
       sodipodi:insensitive="true" />
    <path
       id="HEX_E"
       style="display:inline;fill:none;stroke:#000000;stroke-width:1.32292;stroke-linecap:round;stroke-linejoin:round"
       d="M 169.33333,33.866666 152.4,50.799999 h 16.93333 L 152.4,67.733332 h 16.93333 L 152.4,84.666666 m -118.533334,-50.8 -16.933333,16.933333 H 33.866666 L 16.933333,67.733332 H 33.866666 L 16.933333,84.666666 m 118.533327,-50.8 -84.666661,50.8 h 84.666671 v 0 0 0 m -1e-5,0 -84.666661,50.799994 84.666671,1e-5"
       inkscape:label="HEX_E"
       sodipodi:insensitive="true" />
    <path
       id="HEX_F"
       style="display:inline;fill:none;stroke:#000000;stroke-width:1.32292;stroke-linecap:round;stroke-linejoin:round"
       inkscape:label="HEX_F"
       d="m 135.46666,33.866666 -84.666661,50.8 h 84.666671 v 0 0 0 m -1e-5,0 -84.666661,50.799994 84.666671,1e-5 -84.66667,50.8 M 169.33333,33.866666 152.4,50.799999 h 16.93333 L 152.4,67.733332 h 16.93333 L 152.4,84.666666"
       sodipodi:insensitive="true" />
    <path
       id="000"
       style="display:inline;stroke:#000000;stroke-width:1.32292;stroke-linecap:round;stroke-linejoin:round;stroke-dasharray:none"
       inkscape:label="000"
       d="m 139.69999,237.06667 a 3.9472938,3.9472973 0 0 1 -3.94729,3.94729 3.9472938,3.9472973 0 0 1 -3.94729,-3.94729 3.9472938,3.9472973 0 0 1 3.94729,-3.9473 3.9472938,3.9472973 0 0 1 3.94729,3.9473 z M 139.41395,135.7527 a 3.9472938,3.9472973 0 0 1 -3.94729,3.9473 3.9472938,3.9472973 0 0 1 -3.94729,-3.9473 3.9472938,3.9472973 0 0 1 3.94729,-3.9473 3.9472938,3.9472973 0 0 1 3.94729,3.9473 z M 139.12793,33.866665 a 3.9472938,3.9472973 0 0 1 -3.9473,3.947297 3.9472938,3.9472973 0 0 1 -3.94729,-3.947297 3.9472938,3.9472973 0 0 1 3.94729,-3.947297 3.9472938,3.9472973 0 0 1 3.9473,3.947297 z"
       sodipodi:insensitive="true" />
  </g>
  <g
     inkscape:groupmode="layer"
     id="layer6"
     inkscape:label="Mathematics"
     style="display:none">
    <g
       id="g1519"
       inkscape:label="Addition"
       style="display:none"
       sodipodi:insensitive="true">
      <path
         style="fill:none;stroke:#000000;stroke-width:1.32292;stroke-linecap:round;stroke-linejoin:round"
         d="m 67.733332,67.733332 67.733328,67.733328 v 0"
         id="path1363" />
      <path
         style="fill:none;stroke:#000000;stroke-width:1.32292;stroke-linecap:round;stroke-linejoin:round"
         d="M 203.2,67.733333 135.46666,135.46666"
         id="path1365"
         sodipodi:nodetypes="cc" />
      <path
         style="fill:none;stroke:#000000;stroke-width:2.64583;stroke-linecap:round;stroke-linejoin:round;stroke-dasharray:none"
         d="m 135.46666,135.46666 v 67.73333"
         id="path1367" />
    </g>
    <g
       id="g1530"
       sodipodi:insensitive="true"
       inkscape:label="Subtraction"
       style="display:none">
      <path
         style="fill:none;stroke:#000000;stroke-width:2.64583;stroke-linecap:round;stroke-linejoin:round;stroke-dasharray:none"
         d="m 135.46666,67.733332 v 67.733328 0"
         id="path1521" />
      <path
         style="fill:none;stroke:#000000;stroke-width:1.32292;stroke-linecap:round;stroke-linejoin:round;stroke-dasharray:none"
         d="M 135.46666,203.19999 V 135.46666"
         id="path1523" />
      <path
         style="fill:none;stroke:#000000;stroke-width:1.32292;stroke-linecap:round;stroke-linejoin:round;stroke-dasharray:none"
         d="m 143.93333,143.93333 59.26666,59.26666"
         id="path1525" />
    </g>
    <g
       id="g2047"
       inkscape:label="Pi"
       style="display:none"
       sodipodi:insensitive="true">
      <path
         style="fill:none;stroke:#000000;stroke-width:1.32292;stroke-linecap:round;stroke-linejoin:round;stroke-dasharray:none"
         id="path1822"
         sodipodi:type="arc"
         sodipodi:cx="135.46666"
         sodipodi:cy="135.46666"
         sodipodi:rx="67.73333"
         sodipodi:ry="67.73333"
         sodipodi:start="4.8214398"
         sodipodi:end="0.43347094"
         sodipodi:arc-type="arc"
         d="m 142.8384,68.135676 a 67.73333,67.73333 0 0 1 51.60484,34.020824 67.73333,67.73333 0 0 1 2.49232,61.75973"
         sodipodi:open="true" />
      <path
         style="fill:none;stroke:#000000;stroke-width:1.32292;stroke-linecap:round;stroke-linejoin:round;stroke-dasharray:none"
         id="path1826"
         sodipodi:type="arc"
         sodipodi:cx="135.46666"
         sodipodi:cy="135.46666"
         sodipodi:rx="67.73333"
         sodipodi:ry="67.73333"
         sodipodi:start="0.72226618"
         sodipodi:end="2.4038021"
         sodipodi:arc-type="arc"
         d="M 186.28762,180.24426 A 67.73333,67.73333 0 0 1 135.99241,203.19795 67.73333,67.73333 0 0 1 85.346938,181.0278"
         sodipodi:open="true" />
      <path
         style="fill:none;stroke:#000000;stroke-width:1.32292;stroke-linecap:round;stroke-linejoin:round;stroke-dasharray:none"
         id="path1828"
         sodipodi:type="arc"
         sodipodi:cx="135.46666"
         sodipodi:cy="135.46666"
         sodipodi:rx="67.73333"
         sodipodi:ry="67.73333"
         sodipodi:start="2.6648588"
         sodipodi:end="4.5368839"
         sodipodi:arc-type="arc"
         d="M 75.285703,166.54811 A 67.73333,67.73333 0 0 1 74.752366,105.44036 67.73333,67.73333 0 0 1 123.64005,68.773817"
         sodipodi:open="true" />
      <path
         style="fill:none;stroke:#000000;stroke-width:1.32292;stroke-linecap:round;stroke-linejoin:round;stroke-dasharray:none"
         d="M 84.666666,182.03333 186.26666,88.899999"
         id="path1935" />
    </g>
    <g
       id="g2058"
       inkscape:label="Division"
       sodipodi:insensitive="true"
       style="display:none">
      <path
         style="fill:none;stroke:#000000;stroke-width:1.32292;stroke-linecap:round;stroke-linejoin:round;stroke-dasharray:none"
         d="M 118.53333,152.4 67.733332,203.19999"
         id="path2049" />
      <path
         style="fill:none;stroke:#000000;stroke-width:1.32292;stroke-linecap:round;stroke-linejoin:round;stroke-dasharray:none"
         d="m 152.4,152.4 50.79999,50.79999"
         id="path2051" />
      <path
         style="fill:none;stroke:#000000;stroke-width:1.32292;stroke-linecap:round;stroke-linejoin:round;stroke-dasharray:none"
         d="M 135.46666,118.53333 V 71.966666 67.733332"
         id="path2053" />
    </g>
    <g
       id="g2066"
       inkscape:label="Modulus"
       sodipodi:insensitive="true"
       style="display:none">
      <path
         style="fill:none;stroke:#000000;stroke-width:1.32292;stroke-linecap:round;stroke-linejoin:round;stroke-dasharray:none"
         d="M 118.53333,152.4 67.733332,203.19999"
         id="path2060" />
      <path
         style="fill:none;stroke:#000000;stroke-width:1.32292;stroke-linecap:round;stroke-linejoin:round;stroke-dasharray:none"
         d="m 152.4,152.4 50.79999,50.79999"
         id="path2062" />
      <path
         style="fill:none;stroke:#000000;stroke-width:1.32292;stroke-linecap:round;stroke-linejoin:round;stroke-dasharray:none"
         d="M 135.46666,118.53333 V 71.966666 67.733332"
         id="path2064" />
      <path
         style="fill:none;stroke:#000000;stroke-width:1.32292;stroke-linecap:round;stroke-linejoin:round;stroke-dasharray:none"
         d="m 127,143.93333 8.46666,-8.46667 8.46667,8.46667"
         id="path2068" />
      <path
         style="fill:none;stroke:#000000;stroke-width:1.32292;stroke-linecap:round;stroke-linejoin:round;stroke-dasharray:none"
         d="M 135.46666,135.46666 V 127"
         id="path2070" />
    </g>
    <g
       id="g2203"
       inkscape:label="Imaginary"
       style="display:none"
       sodipodi:insensitive="true">
      <path
         style="fill:none;stroke:#000000;stroke-width:1.32292;stroke-linecap:round;stroke-linejoin:round;stroke-dasharray:none"
         d="M 84.666666,186.26666 H 186.26666"
         id="path2191" />
      <path
         style="fill:none;stroke:#000000;stroke-width:1.32292;stroke-linecap:round;stroke-linejoin:round;stroke-dasharray:none"
         d="M 135.46666,169.33333 V 152.4"
         id="path2193" />
      <path
         style="fill:none;stroke:#000000;stroke-width:1.32292;stroke-linecap:round;stroke-linejoin:round;stroke-dasharray:none"
         d="M 135.46666,118.53333 V 101.6"
         id="path2195" />
      <path
         style="fill:none;stroke:#000000;stroke-width:1.32292;stroke-linecap:round;stroke-linejoin:round;stroke-dasharray:none"
         d="M 135.46666,67.733332 V 50.799999"
         id="path2197" />
    </g>
    <g
       id="g2335"
       inkscape:label="Exponential"
       sodipodi:insensitive="true"
       style="display:none">
      <path
         style="fill:none;stroke:#000000;stroke-width:1.32292;stroke-linecap:round;stroke-linejoin:round;stroke-dasharray:none"
         d="M 67.733333,152.4 C 148.16667,135.46667 193.88136,132.74017 186.26667,33.866666"
         id="path2205"
         sodipodi:nodetypes="cc" />
      <path
         style="fill:none;stroke:#000000;stroke-width:1.32292;stroke-linecap:round;stroke-linejoin:round;stroke-dasharray:none"
         d="M 169.33333,50.799999 186.26666,33.866666 203.2,50.8"
         id="path2207" />
    </g>
    <g
       id="g2474"
       inkscape:label="Limit"
       sodipodi:insensitive="true"
       style="display:none">
      <path
         style="fill:none;stroke:#000000;stroke-width:1.32292;stroke-linecap:round;stroke-linejoin:round;stroke-dasharray:none"
         d="M 220.13333,186.26666 V 84.666666"
         id="path2337" />
      <path
         style="fill:none;stroke:#000000;stroke-width:1.32292;stroke-linecap:round;stroke-linejoin:round;stroke-dasharray:none"
         d="M 84.666666,135.46666 H 211.66666"
         id="path2339" />
      <path
         style="fill:none;stroke:#000000;stroke-width:1.32292;stroke-linecap:round;stroke-linejoin:round;stroke-dasharray:none"
         d="m 211.66666,127 v 8.46666 8.46667"
         id="path2341" />
    </g>
    <g
       id="g2611"
       inkscape:label="Gradient"
       style="display:none;fill:#000000;fill-opacity:1"
       sodipodi:insensitive="true">
      <path
         style="fill:#000000;fill-opacity:1;stroke:#000000;stroke-width:2.64583;stroke-linecap:round;stroke-linejoin:round;stroke-dasharray:none"
         d="M 67.733332,67.733332 135.46666,203.19999 v 0"
         id="path2605" />
      <path
         style="fill:#000000;fill-opacity:1;stroke:#000000;stroke-width:1.32292;stroke-linecap:round;stroke-linejoin:round;stroke-dasharray:none"
         d="M 67.733332,67.733332 H 203.19999 L 135.46667,203.2"
         id="path2607" />
    </g>
    <g
       id="g2627"
       inkscape:label="Derviative"
       style="display:none"
       sodipodi:insensitive="true">
      <ellipse
         style="fill:#000000;fill-opacity:1;stroke:#000000;stroke-width:0.578587;stroke-linecap:round;stroke-linejoin:round;stroke-dasharray:none"
         id="path2615"
         cx="50.427837"
         cy="203.2"
         rx="4.6054969"
         ry="4.6054974" />
      <ellipse
         style="fill:#000000;fill-opacity:1;stroke:#000000;stroke-width:0.578587;stroke-linecap:round;stroke-linejoin:round;stroke-dasharray:none"
         id="ellipse2617"
         cx="84.294502"
         cy="194.73334"
         rx="4.6054969"
         ry="4.6054974" />
      <ellipse
         style="fill:#000000;fill-opacity:1;stroke:#000000;stroke-width:0.578587;stroke-linecap:round;stroke-linejoin:round;stroke-dasharray:none"
         id="ellipse2619"
         cx="118.16117"
         cy="173.56667"
         rx="4.6054969"
         ry="4.6054974" />
      <ellipse
         style="fill:#000000;fill-opacity:1;stroke:#000000;stroke-width:0.578587;stroke-linecap:round;stroke-linejoin:round;stroke-dasharray:none"
         id="ellipse2621"
         cx="135.0945"
         cy="135.46666"
         rx="4.6054969"
         ry="4.6054974" />
      <path
         style="fill:none;fill-opacity:1;stroke:#000000;stroke-width:1.32292;stroke-linecap:round;stroke-linejoin:round;stroke-dasharray:none"
         d="m 33.866666,203.19999 h 16.933333 c 0,0 25.400005,-4.23333 33.866667,-8.46666 C 93.133333,190.5 110.06667,186.26667 118.53333,173.56666 136.87359,146.05625 139.7,114.3 139.7,114.3"
         id="path2629"
         sodipodi:nodetypes="ccssc" />
      <path
         style="fill:none;fill-opacity:1;stroke:#000000;stroke-width:1.32292;stroke-linecap:round;stroke-linejoin:round;stroke-dasharray:none"
         d="M 80.433332,177.8 152.4,169.33333"
         id="path2694" />
    </g>
    <g
       id="g2879"
       inkscape:label="Integral"
       sodipodi:insensitive="true"
       style="display:none">
      <path
         style="fill:none;fill-opacity:1;stroke:#000000;stroke-width:1.32292;stroke-linecap:round;stroke-linejoin:round;stroke-dasharray:none"
         d="m 33.866666,203.19999 h 16.933333 c 0,0 25.400005,-4.23333 33.866667,-8.46666 C 93.133333,190.5 110.06667,186.26667 118.53333,173.56666 136.87359,146.05625 139.7,114.3 139.7,114.3"
         id="path2706"
         sodipodi:nodetypes="ccssc" />
      <ellipse
         style="display:inline;fill:#000000;fill-opacity:1;stroke:#000000;stroke-width:0.578587;stroke-linecap:round;stroke-linejoin:round;stroke-dasharray:none"
         id="ellipse2709"
         cx="135.46666"
         cy="164.72783"
         rx="4.6054969"
         ry="4.6054974" />
      <ellipse
         style="display:inline;fill:#000000;fill-opacity:1;stroke:#000000;stroke-width:0.578587;stroke-linecap:round;stroke-linejoin:round;stroke-dasharray:none"
         id="ellipse2712"
         cx="135.0945"
         cy="182.03333"
         rx="4.6054969"
         ry="4.6054974" />
      <ellipse
         style="display:inline;fill:#000000;fill-opacity:1;stroke:#000000;stroke-width:0.578587;stroke-linecap:round;stroke-linejoin:round;stroke-dasharray:none"
         id="ellipse2714"
         cx="135.46666"
         cy="198.5945"
         rx="4.6054969"
         ry="4.6054974" />
      <ellipse
         style="display:inline;fill:#000000;fill-opacity:1;stroke:#000000;stroke-width:0.578587;stroke-linecap:round;stroke-linejoin:round;stroke-dasharray:none"
         id="ellipse2716"
         cx="88.900002"
         cy="198.5945"
         rx="4.6054969"
         ry="4.6054974" />
      <ellipse
         style="display:inline;fill:#000000;fill-opacity:1;stroke:#000000;stroke-width:0.578587;stroke-linecap:round;stroke-linejoin:round;stroke-dasharray:none"
         id="ellipse2718"
         cx="118.16117"
         cy="198.96666"
         rx="4.6054969"
         ry="4.6054974" />
      <ellipse
         style="display:inline;fill:#000000;fill-opacity:1;stroke:#000000;stroke-width:0.578587;stroke-linecap:round;stroke-linejoin:round;stroke-dasharray:none"
         id="ellipse2720"
         cx="117.87187"
         cy="181.37187"
         rx="4.6054969"
         ry="4.6054974" />
      <ellipse
         style="display:inline;fill:#000000;fill-opacity:1;stroke:#000000;stroke-width:0.578587;stroke-linecap:round;stroke-linejoin:round;stroke-dasharray:none"
         id="ellipse2722"
         cx="135.0945"
         cy="148.16667"
         rx="4.6054969"
         ry="4.6054974" />
    </g>
  </g>
</svg>
